<?xml version="1.0" encoding="UTF-8"?>
<svg version="1.1" xmlns="http://www.w3.org/2000/svg" width="512" height="512">
<path d="M0 0 C6.75 2.25 6.75 2.25 9.73682213 3.74536324 C10.75795949 4.25294534 10.75795949 4.25294534 11.79972589 4.77078164 C12.89410343 5.32233967 12.89410343 5.32233967 14.0105896 5.88504028 C15.1943425 6.4756351 15.1943425 6.4756351 16.40200961 7.07816112 C19.03863861 8.3948321 21.67237259 9.71719072 24.30615234 11.03955078 C26.19846705 11.98599027 28.09095809 12.93207727 29.98361206 13.87783813 C35.11712194 16.44430615 40.24815016 19.01570009 45.37874937 21.58798075 C50.74249304 24.27610354 56.10850233 26.95969595 61.47427368 29.64376831 C71.63297992 34.7262296 81.78963996 39.81276609 91.9455725 44.90076721 C103.50860425 50.69346017 115.07390776 56.48161045 126.63940501 62.2693789 C150.42880254 74.17453041 174.21533925 86.08538828 198 98 C198 98.66 198 99.32 198 100 C178.21862869 109.91401742 158.43498563 119.82348773 138.64860725 129.72750854 C129.46207821 134.32593543 120.27630631 138.92586296 111.09228516 143.52929688 C103.09007838 147.54034891 95.0864824 151.54861266 87.08118618 155.55349541 C82.84016978 157.6753104 78.59987555 159.79854144 74.36124039 161.92510986 C70.37562249 163.92468187 66.38816469 165.92053403 62.39923477 167.9134903 C60.93194426 168.64741175 59.46534414 169.38271525 57.99947357 170.11946869 C56.00513813 171.12157809 54.00842704 172.11878298 52.01101685 173.11474609 C50.89196016 173.67519623 49.77290348 174.23564636 48.61993599 174.81307983 C46 176 46 176 44 176 C44 207.35 44 238.7 44 271 C48.29 271.66 52.58 272.32 57 273 C80.59330947 278.64831977 101.58833304 289.27504838 119.73046875 305.3828125 C122.07846953 307.3868731 122.07846953 307.3868731 126 307 C128.31311233 305.42354765 130.41528695 303.84024976 132.5625 302.0625 C133.18527832 301.55960449 133.80805664 301.05670898 134.44970703 300.53857422 C136.30752146 299.0349012 138.1545712 297.51883141 140 296 C141.38638672 294.87271484 141.38638672 294.87271484 142.80078125 293.72265625 C144.54881203 292.29823663 146.29349615 290.86970214 148.03515625 289.4375 C157.18395857 281.91595501 166.3751997 274.45398396 175.71020508 267.16455078 C180.18397339 263.66268097 184.59841843 260.09204074 189 256.5 C194.65586189 251.8849312 200.35097169 247.32694566 206.10644531 242.83666992 C210.49532302 239.41128205 214.81713608 235.90935281 219.109375 232.36328125 C221 231 221 231 223 231 C224.68465869 232.96390084 226.25549025 234.93780635 227.8125 237 C228.79530227 238.28115593 229.77974761 239.56105269 230.765625 240.83984375 C231.28705078 241.51644043 231.80847656 242.19303711 232.34570312 242.89013672 C234.04735845 245.06040019 235.78831717 247.19204154 237.546875 249.31640625 C238.13235107 250.02474609 238.71782715 250.73308594 239.32104492 251.46289062 C240.46248228 252.83908034 241.60833296 254.21162413 242.7590332 255.58007812 C245.51451153 258.91697212 247.70026152 261.79401397 249 266 C241.37915898 272.22533636 233.75663528 278.44414395 226 284.5 C220.95151452 288.44191867 215.96237628 292.45024464 211 296.5 C205.47660315 301.00759973 199.90815564 305.44842642 194.2890625 309.8359375 C189.12398193 313.87919062 184.04000757 318.01847247 178.95874023 322.16625977 C174.69689091 325.63893482 170.39868899 329.05826306 166.0625 332.4375 C160.8024431 336.53937923 155.63749637 340.74578038 150.5 345 C144.8085006 349.71297432 139.06675554 354.34452844 133.23828125 358.88671875 C128.77910696 362.36853977 124.38265769 365.92248072 120 369.5 C114.47666343 374.00767214 108.90815403 378.44842767 103.2890625 382.8359375 C98.81563292 386.33776247 94.40132798 389.90811164 90 393.5 C84.47660315 398.00759973 78.90815564 402.44842642 73.2890625 406.8359375 C68.81563158 410.33776351 64.40137622 413.90816921 60 417.5 C54.46093312 422.01928901 48.88152035 426.47927322 43.24951172 430.88208008 C36.45424652 436.19777833 29.72851116 441.60022844 23 447 C19.13774461 445.32198127 16.01321305 442.79660053 12.75 440.1875 C12.1415625 439.70539063 11.533125 439.22328125 10.90625 438.7265625 C5.55628261 434.47486077 0.25856029 430.15881328 -5.03613281 425.83862305 C-9.3223059 422.34616659 -13.64225112 418.90262584 -18 415.5 C-23.74010668 411.0179989 -29.39693246 406.44043443 -35.0390625 401.8359375 C-39.32451737 398.34469821 -43.64333106 394.90185928 -48 391.5 C-54.51229417 386.41402155 -60.9236637 381.20903861 -67.328125 375.98828125 C-70.20612454 373.64278467 -73.09655836 371.31398453 -76 369 C-79.57879245 366.14777448 -83.13262718 363.26647524 -86.6796875 360.375 C-92.976228 355.24272548 -99.30742843 350.16414533 -105.70996094 345.16479492 C-110.87460136 341.12198213 -115.95778496 336.98272721 -121.0390625 332.8359375 C-125.32451618 329.34469917 -129.64329453 325.90181112 -134 322.5 C-139.74010668 318.0179989 -145.39693246 313.44043443 -151.0390625 308.8359375 C-155.32451618 305.34469917 -159.64329453 301.90181112 -164 298.5 C-169.04846325 294.55804924 -174.03756169 290.54968287 -179 286.5 C-187.5492684 279.52494186 -196.14078977 272.57989886 -205 266 C-203.57505239 261.74056201 -201.49331063 258.94348315 -198.5625 255.5625 C-197.66487652 254.51324756 -196.76911824 253.46239727 -195.875 252.41015625 C-195.40707031 251.8598877 -194.93914062 251.30961914 -194.45703125 250.74267578 C-191.92532308 247.71463742 -189.49382731 244.60880973 -187.0625 241.5 C-186.60238525 240.9129126 -186.14227051 240.3258252 -185.66821289 239.72094727 C-183.41419411 236.83685335 -181.18241178 233.93869309 -179 231 C-176.23344582 232.29108381 -173.95037933 233.7064804 -171.6015625 235.65234375 C-170.96476562 236.17570313 -170.32796875 236.6990625 -169.671875 237.23828125 C-168.99640625 237.79902344 -168.3209375 238.35976563 -167.625 238.9375 C-166.18046525 240.12464492 -164.73513907 241.31082742 -163.2890625 242.49609375 C-162.2047998 243.38530518 -162.2047998 243.38530518 -161.09863281 244.29248047 C-158.0966513 246.73499544 -155.05256619 249.12122227 -152 251.5 C-146.25942578 255.98138854 -140.6030528 260.5595776 -134.9609375 265.1640625 C-130.67548382 268.65530083 -126.35670547 272.09818888 -122 275.5 C-116.95153675 279.44195076 -111.96243831 283.45031713 -107 287.5 C-98.4507316 294.47505814 -89.85921023 301.42010114 -81 308 C-77.04794377 306.317251 -73.97511749 303.63384251 -70.6875 300.9375 C-50.38128993 284.72184537 -25.88900267 273.87655585 0 271 C0 181.57 0 92.14 0 0 Z M44 71 C44 89.48 44 107.96 44 127 C48.09465263 125.63511579 51.48783939 124.37920761 55.27099609 122.47802734 C56.27158051 121.97765961 57.27216492 121.47729187 58.30307007 120.96176147 C59.36579132 120.42523956 60.42851257 119.88871765 61.5234375 119.3359375 C63.17540634 118.50783066 63.17540634 118.50783066 64.86074829 117.66299438 C68.36739897 115.90408506 71.87122209 114.13962385 75.375 112.375 C77.75610015 111.17886846 80.13783324 109.98400377 82.51953125 108.7890625 C88.34847549 105.8635826 94.17510996 102.93354311 100 100 C100 99.34 100 98.68 100 98 C92.99616823 94.47494266 85.99019871 90.95417504 78.98144722 87.43891144 C75.72728502 85.80660547 72.47388575 84.17281534 69.22216797 82.53564453 C66.08571671 80.956576 62.94734336 79.38139185 59.80758286 77.80891418 C58.02361155 76.91417392 56.2416688 76.0153928 54.45974731 75.11657715 C53.37877777 74.57601685 52.29780823 74.03545654 51.18408203 73.47851562 C50.22921906 72.99886353 49.27435608 72.51921143 48.29055786 72.02502441 C46.11398353 70.86384465 46.11398353 70.86384465 44 71 Z M-13.9375 319 C-14.77635742 319.31251709 -15.61521484 319.62503418 -16.47949219 319.94702148 C-27.01952069 324.00342674 -36.76160813 329.1539125 -45 337 C-41.46142645 340.67644005 -37.73844415 343.89360051 -33.6875 347 C-28.29674069 351.1817996 -22.97202353 355.43474211 -17.6875 359.75 C-9.36119259 368.03768557 -9.36119259 368.03768557 0 373 C0 354.19 0 335.38 0 316 C-5.43277861 316 -8.94130107 317.13015614 -13.9375 319 Z M44 316 C44 334.81 44 353.62 44 373 C54.58513247 365.06115065 65.04859941 357.04542774 75.26757812 348.64233398 C79.75278372 344.96568196 84.33477781 341.44522926 89 338 C85.99355435 333.75516731 82.62495256 331.15153987 78.1875 328.5625 C77.20922241 327.98326782 77.20922241 327.98326782 76.21118164 327.39233398 C69.42859938 323.48908091 62.36367205 320.62680699 55 318 C53.97003906 317.61714844 52.94007813 317.23429687 51.87890625 316.83984375 C48.69982987 315.76662499 48.69982987 315.76662499 44 316 Z " fill="#000000" transform="translate(234,29)"/>
</svg>
