<?xml version="1.0" encoding="UTF-8"?>
<svg version="1.1" xmlns="http://www.w3.org/2000/svg" width="612" height="408">
<path d="M0 0 C27.06 0 54.12 0 82 0 C82 31.02 82 62.04 82 94 C113.02 94 144.04 94 176 94 C176 121.06 176 148.12 176 176 C144.98 176 113.96 176 82 176 C82 207.02 82 238.04 82 270 C54.94 270 27.88 270 0 270 C0 238.98 0 207.96 0 176 C-31.02 176 -62.04 176 -94 176 C-94 148.94 -94 121.88 -94 94 C-62.98 94 -31.96 94 0 94 C0 62.98 0 31.96 0 0 Z " fill="#D9131A" transform="translate(265,69)"/>
<path d="M0 0 C27.06 0 54.12 0 82 0 C82 31.02 82 62.04 82 94 C81.67 94 81.34 94 81 94 C81 63.64 81 33.28 81 2 C54.93 2 28.86 2 2 2 C2 32.69 2 63.38 2 95 C-1.31751593 96.65875797 -5.02597054 96.12889303 -8.67236328 96.11352539 C-9.56998383 96.11367142 -10.46760437 96.11381744 -11.39242554 96.1139679 C-14.36841218 96.11326953 -17.34433675 96.10548067 -20.3203125 96.09765625 C-22.38011643 96.0957918 -24.43992081 96.09436802 -26.49972534 96.09336853 C-31.92817402 96.08954548 -37.35659605 96.07971699 -42.78503418 96.06866455 C-49.29449411 96.05665009 -55.80396294 96.05204718 -62.31343079 96.04621124 C-72.2089724 96.03650514 -82.10445553 96.01734708 -92 96 C-92 121.74 -92 147.48 -92 174 C-76.05268551 173.85123038 -76.05268551 173.85123038 -60.10546875 173.69335938 C-53.60467838 173.6269814 -47.10388939 173.56168677 -40.60302734 173.50268555 C-35.36401443 173.45507046 -30.12506841 173.40272869 -24.8861351 173.34705925 C-22.88380466 173.32662274 -20.88145586 173.30791184 -18.87909317 173.29092598 C-16.08225088 173.26691065 -13.28553575 173.2368522 -10.48876953 173.20532227 C-9.23720566 173.19668907 -9.23720566 173.19668907 -7.96035767 173.18788147 C-3.84759131 173.23585365 -3.84759131 173.23585365 0 172 C1.67986226 175.35972452 1.18091527 179.15903397 1.20532227 182.85595703 C1.21522186 183.77308472 1.22512146 184.6902124 1.23532104 185.63513184 C1.26698715 188.67599885 1.29171366 191.71688151 1.31640625 194.7578125 C1.33697136 196.86246148 1.35796771 198.96710629 1.37937927 201.07174683 C1.43464565 206.61851631 1.48403478 212.16532334 1.53222656 217.7121582 C1.59122696 224.36350118 1.65748 231.01477533 1.72252655 237.6660614 C1.82059349 247.77733233 1.90941029 257.88864685 2 268 C27.74 268 53.48 268 80 268 C80 237.97 80 207.94 80 177 C80.66 176.67 81.32 176.34 82 176 C82 207.02 82 238.04 82 270 C54.94 270 27.88 270 0 270 C0 238.98 0 207.96 0 176 C-31.02 176 -62.04 176 -94 176 C-94 148.94 -94 121.88 -94 94 C-62.98 94 -31.96 94 0 94 C0 62.98 0 31.96 0 0 Z " fill="#B12329" transform="translate(265,69)"/>
</svg>
