<?xml version="1.0" encoding="UTF-8"?>
<svg version="1.1" xmlns="http://www.w3.org/2000/svg" width="500" height="500">
<path d="M0 0 C3.18390762 2.74169823 4.29560561 5.89490262 5.25 9.9375 C5.25 11.2575 5.25 12.5775 5.25 13.9375 C10.40243679 13.28503738 15.33853295 12.25232011 20.375 11 C37.09471825 6.96846225 53.65756359 5.72657399 70.8125 5.75 C71.56356018 5.75027191 72.31462036 5.75054382 73.08843994 5.75082397 C84.59554776 5.76995199 95.85756464 6.2670626 107.25 7.9375 C108.74723909 8.13530464 110.24464024 8.33188591 111.7421875 8.52734375 C134.08755677 11.55667224 156.1441417 16.33368504 178.05661011 21.58535767 C186.65516364 23.64518607 195.24957606 25.65757924 203.9375 27.3125 C204.68273926 27.45574707 205.42797852 27.59899414 206.19580078 27.74658203 C218.43062013 29.99067749 230.63072245 31.28238565 243.0625 31.625 C244.05289276 31.65394348 244.05289276 31.65394348 245.06329346 31.68347168 C264.27627539 32.22707811 283.43308588 32.21579235 302.25 27.9375 C302.92708008 27.7837793 303.60416016 27.63005859 304.30175781 27.47167969 C312.45526811 25.59304358 320.4511792 23.35008884 328.3828125 20.671875 C331.25 19.9375 331.25 19.9375 337.25 19.9375 C337.25 104.7475 337.25 189.5575 337.25 276.9375 C330.85182754 279.7811322 325.32045374 281.92383493 318.625 283.4375 C317.72765137 283.6447168 316.83030273 283.85193359 315.90576172 284.06542969 C296.16703203 288.51695464 276.97629607 290.9723516 256.75 291.0625 C255.74146973 291.06733398 254.73293945 291.07216797 253.69384766 291.07714844 C238.675277 291.04335001 224.11399747 289.41639337 209.3125 287.0625 C207.9091037 286.84223648 207.9091037 286.84223648 206.47735596 286.61752319 C189.81615352 283.9757971 173.44480664 280.401936 157.03436279 276.51864624 C141.83442605 272.92302266 126.78365358 269.75203016 111.25 267.9375 C109.93346436 267.77846191 109.93346436 267.77846191 108.59033203 267.61621094 C103.15040968 266.96881857 97.70707796 266.41720003 92.25 265.9375 C91.02410156 265.82535156 89.79820312 265.71320313 88.53515625 265.59765625 C61.22603587 263.35517505 32.54174527 266.09371148 6.25 273.9375 C5.09456752 282.68787948 5.09800065 291.42342316 5.09228516 300.23168945 C5.08760844 301.86050044 5.08246348 303.48931013 5.07688904 305.11811829 C5.06567322 308.60691007 5.05720835 312.09569364 5.05076981 315.58449745 C5.04003227 321.10211437 5.01977641 326.61967127 4.99765015 332.13725281 C4.93590546 347.82039668 4.88163286 363.50353479 4.84863281 379.18676758 C4.83029807 387.86266796 4.80138761 396.53846551 4.7606281 405.21429032 C4.73956043 409.80021276 4.72410094 414.38600575 4.72182083 418.97197914 C4.71967638 423.27885575 4.70382806 427.58546162 4.67743111 431.89225578 C4.67023231 433.4720676 4.66813996 435.05191219 4.67153358 436.63173676 C4.67542702 438.78865102 4.66097989 440.94469994 4.64199829 443.10151672 C4.63868814 444.30806066 4.635378 445.51460459 4.63196754 446.75771046 C4.21288013 450.24651419 3.31358289 452.12493867 1.25 454.9375 C-2.24826751 457.65837473 -6.51045394 457.45929028 -10.75 456.9375 C-16.16361378 455.03270997 -16.16361378 455.03270997 -17.89815778 451.79305357 C-18.93982959 448.30115144 -19.02732406 445.04425626 -19.00447559 441.43614292 C-19.00768207 440.68591011 -19.01088855 439.9356773 -19.01419219 439.16271016 C-19.02251508 436.64058706 -19.01655994 434.11870001 -19.01069641 431.59657288 C-19.01371605 429.7733704 -19.01760458 427.95016919 -19.02228898 426.12697023 C-19.03260187 421.1103333 -19.0303788 416.09376757 -19.02610838 411.07712471 C-19.02364713 405.66940478 -19.03264781 400.26170226 -19.04014587 394.85398865 C-19.05291146 384.25737563 -19.05468427 373.66078793 -19.05234561 363.06416852 C-19.05056444 354.4535421 -19.05230777 345.84292339 -19.05657005 337.2322979 C-19.05716524 336.00799802 -19.05776043 334.78369814 -19.05837366 333.52229826 C-19.05958537 331.03534631 -19.06079951 328.54839437 -19.06201603 326.06144243 C-19.07289865 302.72590552 -19.07072561 279.39038305 -19.06463119 256.05484533 C-19.05946085 234.6937938 -19.07071927 213.33279192 -19.08972941 191.9717489 C-19.10908799 170.05157676 -19.11736732 148.13142622 -19.11360615 126.21124548 C-19.11169117 113.89936571 -19.11421062 101.58752475 -19.12832069 89.27565193 C-19.14021023 78.79504551 -19.14166669 68.3145018 -19.12953053 57.83389456 C-19.12362488 52.48434682 -19.12258886 47.13491391 -19.13453293 41.78537369 C-19.14533437 36.89081678 -19.14235715 31.99647136 -19.12827124 27.10192459 C-19.12560843 25.32876245 -19.12804017 23.55558405 -19.13600711 21.78243781 C-19.14607013 19.37626748 -19.13772845 16.97083845 -19.12473011 14.56469822 C-19.13203946 13.87276885 -19.1393488 13.18083949 -19.14687964 12.46794257 C-19.09572834 7.91450627 -18.15626503 4.79754768 -15.75 0.9375 C-10.29324265 -2.90703359 -6.03373715 -2.33121662 0 0 Z " fill="#F3DA1D" transform="translate(90.75,22.0625)"/>
<path d="M0 0 C3.18390762 2.74169823 4.29560561 5.89490262 5.25 9.9375 C5.25 11.2575 5.25 12.5775 5.25 13.9375 C10.40243679 13.28503738 15.33853295 12.25232011 20.375 11 C37.09471825 6.96846225 53.65756359 5.72657399 70.8125 5.75 C71.56356018 5.75027191 72.31462036 5.75054382 73.08843994 5.75082397 C84.59506166 5.76995118 95.85829328 6.26437535 107.25 7.9375 C108.81757118 8.14686285 110.38528483 8.35516114 111.953125 8.5625 C121.52672848 9.87320605 131.01749152 11.58446038 140.5 13.4375 C141.54752441 13.63899658 142.59504883 13.84049316 143.67431641 14.0480957 C149.47715501 15.21324732 154.75760506 16.74054202 160.25 18.9375 C161.57 19.2675 162.89 19.5975 164.25 19.9375 C164.25 61.8475 164.25 103.7575 164.25 146.9375 C158.86681404 146.9375 154.96326376 146.63553637 149.82421875 145.546875 C148.38854478 145.24795692 146.95283361 144.94921746 145.51708984 144.65063477 C144.3985965 144.41438889 144.3985965 144.41438889 143.25750732 144.17337036 C139.28788232 143.34202681 135.30950535 142.55449266 131.33203125 141.76171875 C127.17057655 140.93147427 123.01070354 140.10003038 118.86083984 139.21337891 C103.15567323 135.87947964 87.62444213 135.52529649 71.625 135.4375 C70.59840271 135.42687531 69.57180542 135.41625061 68.51409912 135.40530396 C49.54960674 135.25500871 31.67490836 137.64807729 13.35946655 142.52160645 C12.0424376 142.87021414 12.0424376 142.87021414 10.69880199 143.22586441 C8.54885937 143.79513305 6.39927306 144.36570964 4.25 144.9375 C4.24739563 145.87446868 4.24739563 145.87446868 4.24473864 146.83036602 C4.14167425 183.86525501 4.03355407 220.90012604 3.91888306 257.93498098 C3.90511375 262.38341169 3.89138661 266.83184252 3.87768555 271.28027344 C3.87495724 272.16586292 3.87222894 273.0514524 3.86941796 273.96387793 C3.82536244 288.2966376 3.78472207 302.62940501 3.74534739 316.96217822 C3.7048587 331.67273977 3.66069162 346.38328699 3.61312145 361.09382737 C3.58389203 370.16843942 3.55751978 379.24305049 3.53482103 388.31768127 C3.51897322 394.54343792 3.49954719 400.76917706 3.47733159 406.99491422 C3.46462609 410.58492445 3.45347506 414.1749214 3.44658089 417.76494789 C3.43905338 421.66321851 3.42397906 425.56143981 3.40821838 429.45968628 C3.40724028 430.58616951 3.40626217 431.71265274 3.40525442 432.87327182 C3.31465504 450.32438631 3.31465504 450.32438631 0.1875 455.0625 C-3.5404797 457.44206151 -6.50068377 457.69422755 -10.75 456.9375 C-16.16361378 455.03270997 -16.16361378 455.03270997 -17.89815778 451.79305357 C-18.93982959 448.30115144 -19.02732406 445.04425626 -19.00447559 441.43614292 C-19.00768207 440.68591011 -19.01088855 439.9356773 -19.01419219 439.16271016 C-19.02251508 436.64058706 -19.01655994 434.11870001 -19.01069641 431.59657288 C-19.01371605 429.7733704 -19.01760458 427.95016919 -19.02228898 426.12697023 C-19.03260187 421.1103333 -19.0303788 416.09376757 -19.02610838 411.07712471 C-19.02364713 405.66940478 -19.03264781 400.26170226 -19.04014587 394.85398865 C-19.05291146 384.25737563 -19.05468427 373.66078793 -19.05234561 363.06416852 C-19.05056444 354.4535421 -19.05230777 345.84292339 -19.05657005 337.2322979 C-19.05716524 336.00799802 -19.05776043 334.78369814 -19.05837366 333.52229826 C-19.05958537 331.03534631 -19.06079951 328.54839437 -19.06201603 326.06144243 C-19.07289865 302.72590552 -19.07072561 279.39038305 -19.06463119 256.05484533 C-19.05946085 234.6937938 -19.07071927 213.33279192 -19.08972941 191.9717489 C-19.10908799 170.05157676 -19.11736732 148.13142622 -19.11360615 126.21124548 C-19.11169117 113.89936571 -19.11421062 101.58752475 -19.12832069 89.27565193 C-19.14021023 78.79504551 -19.14166669 68.3145018 -19.12953053 57.83389456 C-19.12362488 52.48434682 -19.12258886 47.13491391 -19.13453293 41.78537369 C-19.14533437 36.89081678 -19.14235715 31.99647136 -19.12827124 27.10192459 C-19.12560843 25.32876245 -19.12804017 23.55558405 -19.13600711 21.78243781 C-19.14607013 19.37626748 -19.13772845 16.97083845 -19.12473011 14.56469822 C-19.13203946 13.87276885 -19.1393488 13.18083949 -19.14687964 12.46794257 C-19.09572834 7.91450627 -18.15626503 4.79754768 -15.75 0.9375 C-10.29324265 -2.90703359 -6.03373715 -2.33121662 0 0 Z " fill="#E82844" transform="translate(90.75,22.0625)"/>
<path d="M0 0 C13.38136257 2.23022709 13.38136257 2.23022709 19.1171875 3.3671875 C62.70200788 11.878531 109.85508497 18.93890645 153.06640625 4.24609375 C158.61398415 2.48871803 164.3297473 1.30851985 170 0 C170 42.24 170 84.48 170 128 C164.37505608 130.10935397 160.69701401 131.40656104 155 132 C155 132.33 155 132.66 155 133 C133.86658479 139.1161305 113.53658099 142.05578549 91.5 142.125 C90.49227539 142.12967285 89.48455078 142.1343457 88.44628906 142.13916016 C73.63517135 142.10823428 59.37190762 140.47786916 44.78369141 138.09863281 C41.87403377 137.62484266 38.96263159 137.16322574 36.05078125 136.703125 C10.95962812 132.69698348 10.95962812 132.69698348 0 128 C0 85.76 0 43.52 0 0 Z " fill="#E82844" transform="translate(256,171)"/>
<path d="M0 0 C2.79917485 2.38448228 3.0516365 5.95309618 3.6875 9.4375 C3.85804441 12.00610538 3.93681713 14.58201015 3.93638897 17.15627098 C3.93899625 17.89357158 3.94160354 18.63087217 3.94428983 19.39051521 C3.95056485 21.85063177 3.94264225 24.3104906 3.93473816 26.77059937 C3.93632718 28.5564164 3.93879169 30.34223283 3.94205457 32.12804759 C3.94846097 37.02757749 3.94240533 41.9270246 3.93429029 46.82654905 C3.92770741 52.113632 3.93266309 57.40070579 3.93617249 62.68778992 C3.94121309 73.0426997 3.93557437 83.39757754 3.92632218 93.75248335 C3.91593456 105.81206082 3.91600848 117.8716314 3.91649476 129.9312125 C3.91699539 151.45056768 3.90783419 172.969908 3.89331055 194.48925781 C3.87922666 215.3678413 3.87213963 236.2464117 3.87280273 257.125 C3.87286267 259.0534199 3.87286267 259.0534199 3.87292381 261.02079777 C3.87298435 262.94589019 3.87298435 262.94589019 3.8730461 264.90987337 C3.87373624 288.68020446 3.86784368 312.45052999 3.85889288 336.22085928 C3.85587808 344.62553535 3.8548135 353.03021039 3.85436058 361.43488693 C3.85367789 371.6799662 3.8492056 381.92503611 3.84002777 392.1701114 C3.83541578 397.39659682 3.83236208 402.62307028 3.83362198 407.84955788 C3.83471989 412.63619985 3.83118107 417.4228154 3.82397345 422.20945187 C3.82216567 423.93885338 3.82202441 425.66825762 3.82374074 427.39765923 C3.84428844 450.68479024 3.84428844 450.68479024 0.625 455.5625 C-3.1029797 457.94206151 -6.06318377 458.19422755 -10.3125 457.4375 C-15.72611378 455.53270997 -15.72611378 455.53270997 -17.46065778 452.29305357 C-18.50232959 448.80115144 -18.58982406 445.54425626 -18.56697559 441.93614292 C-18.57018207 441.18591011 -18.57338855 440.4356773 -18.57669219 439.66271016 C-18.58501508 437.14058706 -18.57905994 434.61870001 -18.57319641 432.09657288 C-18.57621605 430.2733704 -18.58010458 428.45016919 -18.58478898 426.62697023 C-18.59510187 421.6103333 -18.5928788 416.59376757 -18.58860838 411.57712471 C-18.58614713 406.16940478 -18.59514781 400.76170226 -18.60264587 395.35398865 C-18.61541146 384.75737563 -18.61718427 374.16078793 -18.61484561 363.56416852 C-18.61306444 354.9535421 -18.61480777 346.34292339 -18.61907005 337.7322979 C-18.61966524 336.50799802 -18.62026043 335.28369814 -18.62087366 334.02229826 C-18.62208537 331.53534631 -18.62329951 329.04839437 -18.62451603 326.56144243 C-18.63539865 303.22590552 -18.63322561 279.89038305 -18.62713119 256.55484533 C-18.62196085 235.1937938 -18.63321927 213.83279192 -18.65222941 192.4717489 C-18.67158799 170.55157676 -18.67986732 148.63142622 -18.67610615 126.71124548 C-18.67419117 114.39936571 -18.67671062 102.08752475 -18.69082069 89.77565193 C-18.70271023 79.29504551 -18.70416669 68.8145018 -18.69203053 58.33389456 C-18.68612488 52.98434682 -18.68508886 47.63491391 -18.69703293 42.28537369 C-18.70783437 37.39081678 -18.70485715 32.49647136 -18.69077124 27.60192459 C-18.68810843 25.82876245 -18.69054017 24.05558405 -18.69850711 22.28243781 C-18.70857013 19.87626748 -18.70022845 17.47083845 -18.68723011 15.06469822 C-18.69453946 14.37276885 -18.7018488 13.68083949 -18.70937964 12.96794257 C-18.65822834 8.41450627 -17.71876503 5.29754768 -15.3125 1.4375 C-9.93075979 -2.3541806 -6.09190459 -1.48181463 0 0 Z " fill="#2F332E" transform="translate(90.3125,21.5625)"/>
<path d="M0 0 C0 84.81 0 169.62 0 257 C-10.24615385 261.55384615 -10.24615385 261.55384615 -15.375 262.8125 C-16.37273437 263.06644531 -17.37046875 263.32039063 -18.3984375 263.58203125 C-21 264 -21 264 -24 263 C-22.02 262.34 -20.04 261.68 -18 261 C-18 260.67 -18 260.34 -18 260 C-16.45859034 259.68623479 -14.91685785 259.37405535 -13.375 259.0625 C-12.51648438 258.88847656 -11.65796875 258.71445312 -10.7734375 258.53515625 C-7.85829943 257.97265778 -4.92851609 257.48808602 -2 257 C-2.33 173.51 -2.66 90.02 -3 4 C-7.13240846 4.59034407 -11.02361065 5.17591453 -15.0625 6.0625 C-18.77444363 6.82755708 -22.19378025 7.20032736 -26 7 C-26 6.67 -26 6.34 -26 6 C-25.4652002 5.85377197 -24.93040039 5.70754395 -24.37939453 5.55688477 C-21.96066661 4.89424479 -19.54282904 4.22841194 -17.125 3.5625 C-16.28324219 3.33240234 -15.44148438 3.10230469 -14.57421875 2.86523438 C-13.36572266 2.53168945 -13.36572266 2.53168945 -12.1328125 2.19140625 C-11.01737061 1.88505249 -11.01737061 1.88505249 -9.87939453 1.57250977 C-4.71727079 0 -4.71727079 0 0 0 Z " fill="#F0C69F" transform="translate(428,42)"/>
<path d="M0 0 C0.33 0 0.66 0 1 0 C1 42.24 1 84.48 1 128 C1.66 128.33 2.32 128.66 3 129 C2.34 129 1.68 129 1 129 C1 171.24 1 213.48 1 257 C2.98 257.33 4.96 257.66 7 258 C3.98968256 258.93423645 3.13349732 259.04449911 0 258 C0 215.76 0 173.52 0 130 C-8.58 128.35 -17.16 126.7 -26 125 C-33.4375 123.25 -33.4375 123.25 -36.296875 122.5546875 C-40.12955617 121.76821246 -43.95437392 121.45082913 -47.85546875 121.2109375 C-50 121 -50 121 -52 120 C-67.51797536 117.80610814 -83.1054498 117.58745959 -98.75 117.375 C-101.11589787 117.33669901 -103.4817836 117.29764091 -105.84765625 117.2578125 C-111.56499423 117.16317626 -117.28240901 117.07777256 -123 117 C-123 116.67 -123 116.34 -123 116 C-117.39963108 114.82162455 -111.917263 114.83840793 -106.22265625 114.83203125 C-104.65734413 114.82703865 -104.65734413 114.82703865 -103.06040955 114.82194519 C-100.85237059 114.81689134 -98.64432403 114.81453639 -96.4362793 114.81469727 C-93.10517267 114.81252779 -89.77440674 114.79440261 -86.44335938 114.77539062 C-56.83541113 114.6929528 -29.33126948 121.45084091 0 127 C0 85.09 0 43.18 0 0 Z " fill="#F6A23A" transform="translate(255,42)"/>
<path d="M0 0 C-2.90527612 2.90527612 -6.21099025 2.71264319 -10.125 3.125 C-10.87910156 3.21136719 -11.63320312 3.29773438 -12.41015625 3.38671875 C-14.27257127 3.59889261 -16.13618931 3.80045763 -18 4 C-17.91619411 20.26352148 -17.82109586 36.52693131 -17.71247292 52.79030418 C-17.66230451 60.34130188 -17.6158622 67.89228848 -17.578125 75.44335938 C-17.54523223 82.02320036 -17.50541627 88.60295634 -17.45720994 95.18270361 C-17.43191775 98.66814867 -17.41014467 102.15353715 -17.39665604 105.63904953 C-17.38148598 109.52558219 -17.35086242 113.41190755 -17.31884766 117.29833984 C-17.31668747 118.45999161 -17.31452728 119.62164337 -17.31230164 120.8184967 C-17.29555641 122.40027458 -17.29555641 122.40027458 -17.2784729 124.01400757 C-17.27294214 124.93395697 -17.26741138 125.85390636 -17.26171303 126.80173302 C-17.20516864 129.207201 -17.20516864 129.207201 -15 131 C-16.32 131 -17.64 131 -19 131 C-18.99723462 131.91275538 -18.99446924 132.82551077 -18.99162006 133.76592541 C-18.92539343 155.96589441 -18.87573558 178.1658464 -18.84456348 200.36589336 C-18.82908857 211.10163099 -18.8079871 221.83730272 -18.77368164 232.57299805 C-18.74379843 241.92922964 -18.72442954 251.28541351 -18.71773452 260.64169151 C-18.71382044 265.59667957 -18.70460879 270.5515311 -18.68280983 275.50647545 C-18.66246175 280.16936943 -18.65616282 284.83207049 -18.66067696 289.49500465 C-18.659851 291.20706353 -18.65387536 292.91912879 -18.64238358 294.63114929 C-18.62746552 296.96805667 -18.63104357 299.30423493 -18.63923645 301.64115906 C-18.63647107 302.9491833 -18.63370569 304.25720755 -18.63085651 305.60486889 C-19.02160486 309.19870687 -19.89989135 311.10016097 -22 314 C-22.66 313.67 -23.32 313.34 -24 313 C-23.34 312.34 -22.68 311.68 -22 311 C-20.46916018 303.71440646 -20.84821225 295.92833275 -20.84178162 288.52218628 C-20.83684364 287.30082698 -20.83190566 286.07946768 -20.82681805 284.82109749 C-20.81418308 281.45741474 -20.80585092 278.09377267 -20.79939139 274.73007584 C-20.7913385 271.09285067 -20.77765779 267.45564599 -20.76467896 263.81843567 C-20.74298511 257.52546714 -20.72481493 251.23249647 -20.70907402 244.93951035 C-20.68631047 235.84103658 -20.65817684 226.74258558 -20.62875474 217.6441312 C-20.58115806 202.88060275 -20.53787255 188.11706496 -20.49731445 173.35351562 C-20.45791911 159.01659418 -20.41648328 144.67968101 -20.37231445 130.34277344 C-20.36959018 129.45826299 -20.36686591 128.57375253 -20.36405908 127.66243874 C-20.35037894 123.22487581 -20.3366588 118.78731302 -20.32291877 114.34975028 C-20.20907856 77.56651741 -20.10224182 40.78326685 -20 4 C-18.57946704 3.52592193 -17.15888436 3.05199281 -15.73828125 2.578125 C-14.94719971 2.31418945 -14.15611816 2.05025391 -13.34106445 1.77832031 C-12.56851318 1.52147461 -11.79596191 1.26462891 -11 1 C-10.33895264 0.77666992 -9.67790527 0.55333984 -8.99682617 0.32324219 C-5.66243496 -0.73318077 -3.31458656 -1.32583462 0 0 Z " fill="#BDB259" transform="translate(114,163)"/>
<path d="M0 0 C0.33 0 0.66 0 1 0 C1 40.92 1 81.84 1 124 C-4.34951968 124 -8.81545092 123.62465543 -13.953125 122.5390625 C-15.0644278 122.31311905 -15.0644278 122.31311905 -16.19818115 122.08261108 C-18.55015126 121.60313273 -20.90008174 121.11442525 -23.25 120.625 C-25.58032058 120.14586867 -27.91103187 119.66867832 -30.24182129 119.1918335 C-31.74515389 118.88421809 -33.24833079 118.57584074 -34.75134277 118.2666626 C-40.48574987 117.09107209 -46.2327587 116.00334198 -52 115 C-52 114.67 -52 114.34 -52 114 C-50.56260487 113.97287934 -49.12506137 113.95354933 -47.6875 113.9375 C-46.48673828 113.92009766 -46.48673828 113.92009766 -45.26171875 113.90234375 C-43 114 -43 114 -40 115 C-37.94106379 115.22325814 -35.87766347 115.40705759 -33.8125 115.5625 C-32.18248047 115.68818359 -32.18248047 115.68818359 -30.51953125 115.81640625 C-29.68808594 115.87699219 -28.85664063 115.93757813 -28 116 C-28 116.33 -28 116.66 -28 117 C-21.4 117.99 -14.8 118.98 -8 120 C-8 120.66 -8 121.32 -8 122 C-5.69 121.67 -3.38 121.34 -1 121 C-0.67 81.07 -0.34 41.14 0 0 Z " fill="#D43E27" transform="translate(254,45)"/>
<path d="M0 0 C6.63681576 0.68738449 13.00792369 2.04171834 19.5 3.5625 C20.51320313 3.79646484 21.52640625 4.03042969 22.5703125 4.27148438 C25.04772479 4.84409382 27.52422965 5.42034015 30 6 C30 6.33 30 6.66 30 7 C27.9163691 6.85848172 25.83310062 6.71162064 23.75 6.5625 C22.58984375 6.48128906 21.4296875 6.40007813 20.234375 6.31640625 C17 6 17 6 13 5 C13 46.25 13 87.5 13 130 C17.29 130.66 21.58 131.32 26 132 C26 132.66 26 133.32 26 134 C27.093125 133.95875 28.18625 133.9175 29.3125 133.875 C33 134 33 134 36 136 C27.96285696 136.47277312 18.79770453 135.53180302 12 131 C11.63085651 128.75488091 11.63085651 128.75488091 11.63923645 125.90011597 C11.63511246 124.82035492 11.63098846 123.74059387 11.6267395 122.62811279 C11.63752533 121.43840881 11.64831116 120.24870483 11.65942383 119.02294922 C11.65898575 117.77420013 11.65854767 116.52545105 11.65809631 115.23886108 C11.65983153 111.80912575 11.67490382 108.37992836 11.69581819 104.9502883 C11.71453859 101.36817087 11.71633175 97.78604673 11.71989441 94.20388794 C11.72922856 87.41818579 11.75386075 80.63262818 11.78394288 73.84698975 C11.81744439 66.12280602 11.83396218 58.39861547 11.84902918 50.6743772 C11.88040921 34.78283435 11.93319617 18.89143579 12 3 C9.99804688 2.77416992 7.99609375 2.54833984 5.99414062 2.32250977 C3.71317668 1.95361244 1.95732993 1.22333121 0 0 Z " fill="#FED73B" transform="translate(244,39)"/>
<path d="M0 0 C0.33 0 0.66 0 1 0 C1 41.91 1 83.82 1 127 C-9.125 125.875 -9.125 125.875 -12.81640625 125.02734375 C-13.99106445 124.76147461 -13.99106445 124.76147461 -15.18945312 124.49023438 C-15.97255859 124.30783203 -16.75566406 124.12542969 -17.5625 123.9375 C-18.38041016 123.75123047 -19.19832031 123.56496094 -20.04101562 123.37304688 C-22.02835896 122.91979313 -24.01433201 122.46053788 -26 122 C-26 121.67 -26 121.34 -26 121 C-24.741875 120.979375 -23.48375 120.95875 -22.1875 120.9375 C-21.47980469 120.92589844 -20.77210938 120.91429687 -20.04296875 120.90234375 C-18 121 -18 121 -15 122 C-11.90775724 122.30540669 -8.81488281 122.50832311 -5.71484375 122.71875 C-3 123 -3 123 -1 124 C-1.00171833 123.14608752 -1.00171833 123.14608752 -1.00347137 122.27492428 C-1.02965279 107.06845122 -0.94052771 91.86571772 -0.78125 76.66015625 C-0.75872893 74.4285848 -0.73631074 72.1970123 -0.71398926 69.96543884 C-0.65582361 64.1772659 -0.5962891 58.38910788 -0.53643799 52.60095215 C-0.47526394 46.660409 -0.41542799 40.71985238 -0.35546875 34.77929688 C-0.23826525 23.18618459 -0.11961103 11.59308767 0 0 Z " fill="#FEC942" transform="translate(254,172)"/>
<path d="M0 0 C0.66870117 0.09603516 1.33740234 0.19207031 2.02636719 0.29101562 C5.69177172 0.81797354 9.34857035 1.38378028 13 2 C13 2.33 13 2.66 13 3 C12.40272598 2.97265274 11.80545197 2.94530548 11.19007874 2.91712952 C-6.7247269 2.11229654 -24.63258411 1.71275718 -42.5625 1.4375 C-45.24284849 1.39448538 -47.92318202 1.3505722 -50.60351562 1.30664062 C-57.06896391 1.20133734 -63.53445691 1.09930272 -70 1 C-70 0.67 -70 0.34 -70 0 C-47.40722853 -3.91701301 -22.62976939 -3.35591771 0 0 Z " fill="#E36678" transform="translate(198,30)"/>
<path d="M0 0 C2 1 2 1 3.125 4.3125 C4 8 4 8 4 12 C5.485 11.7834375 5.485 11.7834375 7 11.5625 C10.99409465 10.99074821 14.99532937 10.49180166 19 10 C19 10.66 19 11.32 19 12 C17.60432165 12.31319144 16.20844918 12.62551788 14.8125 12.9375 C14.03519531 13.11152344 13.25789063 13.28554688 12.45703125 13.46484375 C9.97736332 14.00493041 7.48852108 14.50229578 5 15 C4.67 55.26 4.34 95.52 4 137 C3.67 137 3.34 137 3 137 C2.99668985 136.37899603 2.99337971 135.75799206 2.98996925 135.11816978 C2.90845576 119.94994713 2.81627281 104.78182911 2.71247292 89.61374474 C2.66252692 82.2783246 2.61608331 74.94291465 2.578125 67.60742188 C2.54499954 61.2076534 2.50505799 54.80796835 2.45720994 48.40829241 C2.43214724 45.02530571 2.41030856 41.64237289 2.39665604 38.25931931 C2.46235588 19.02819233 2.46235588 19.02819233 0 0 Z " fill="#E13048" transform="translate(92,24)"/>
<path d="M0 0 C0 0.33 0 0.66 0 1 C-6.28215718 1.10355204 -12.48560938 1.01123188 -18.75 0.5 C-45.07711416 -1.44169606 -72.66801 1.50743958 -98 9 C-98.33 12.3 -98.66 15.6 -99 19 C-99.33 19 -99.66 19 -100 19 C-100 15.04 -100 11.08 -100 7 C-98.35 6.34 -96.7 5.68 -95 5 C-94.34 4.34 -93.68 3.68 -93 3 C-90.19702148 2.65844727 -90.19702148 2.65844727 -86.68359375 2.50390625 C-80.82493757 2.16463063 -75.17116829 1.45926459 -69.38867188 0.48876953 C-46.324121 -3.33387843 -23.15631935 -3.08383801 0 0 Z " fill="#F8EF9F" transform="translate(195,287)"/>
<path d="M0 0 C0.33 0 0.66 0 1 0 C1 41.25 1 82.5 1 125 C-12 129 -12 129 -15 129 C-15 128.34 -15 127.68 -15 127 C-13.02 127 -11.04 127 -9 127 C-9 126.34 -9 125.68 -9 125 C-4.545 124.01 -4.545 124.01 0 123 C0 82.41 0 41.82 0 0 Z " fill="#EED636" transform="translate(425,46)"/>
<path d="M0 0 C18.15 0 36.3 0 55 0 C55 0.66 55 1.32 55 2 C49.11028263 2.85080267 43.40732399 3.1471984 37.4609375 3.1328125 C36.57644928 3.13376923 35.69196106 3.13472595 34.78067017 3.13571167 C32.92344084 3.13638811 31.06620908 3.1345715 29.20898438 3.13037109 C26.37624795 3.12500237 23.54366914 3.13034093 20.7109375 3.13671875 C18.89843715 3.13605812 17.0859369 3.13477728 15.2734375 3.1328125 C14.4326767 3.13483673 13.59191589 3.13686096 12.72567749 3.13894653 C8.37083443 3.12167045 4.28832318 2.87116027 0 2 C0 1.34 0 0.68 0 0 Z " fill="#F2E57E" transform="translate(320,54)"/>
<path d="M0 0 C17.6942504 -0.10354036 35.33568845 -0.20194587 53 1 C53 1.66 53 2.32 53 3 C53.89525391 2.94779297 53.89525391 2.94779297 54.80859375 2.89453125 C63.78291917 2.61450029 72.23857601 4.2744206 81 6 C81 6.66 81 7.32 81 8 C81.99 8.495 81.99 8.495 83 9 C75.76252805 8.33346916 68.57280969 7.4417338 61.375 6.4375 C60.37082031 6.29892578 59.36664063 6.16035156 58.33203125 6.01757812 C55.88778676 5.6800396 53.44378839 5.34082223 51 5 C51 4.34 51 3.68 51 3 C50.31035156 3.01160156 49.62070313 3.02320313 48.91015625 3.03515625 C47.50056641 3.04869141 47.50056641 3.04869141 46.0625 3.0625 C45.14597656 3.07410156 44.22945312 3.08570313 43.28515625 3.09765625 C40 3 40 3 36.125 2.53125 C29.09458685 1.69958467 22.0080592 1.63522709 14.9375 1.4375 C13.4850161 1.39421245 12.03254199 1.35059526 10.58007812 1.30664062 C7.05349009 1.20062746 3.52679065 1.09907252 0 1 C0 0.67 0 0.34 0 0 Z " fill="#EFDA48" transform="translate(144,284)"/>
<path d="M0 0 C4.62 0 9.24 0 14 0 C14 0.33 14 0.66 14 1 C-16.65886058 6.74978501 -47.08619916 7.90619644 -78 3 C-78 2.67 -78 2.34 -78 2 C-75.18743719 1.97315688 -72.37512759 1.95323812 -69.5625 1.9375 C-68.76005859 1.92912109 -67.95761719 1.92074219 -67.13085938 1.91210938 C-65.08704779 1.9034857 -63.04316098 1.9477185 -61 2 C-60.67 2.33 -60.34 2.66 -60 3 C-58.65475995 3.15702247 -57.30200375 3.25083502 -55.94921875 3.31640625 C-55.11165039 3.35846191 -54.27408203 3.40051758 -53.41113281 3.44384766 C-52.06293457 3.50258057 -52.06293457 3.50258057 -50.6875 3.5625 C-49.77194336 3.6042334 -48.85638672 3.6459668 -47.91308594 3.68896484 C-38.3602745 4.10290874 -28.92040434 4.1111595 -19.375 3.5625 C-18.6747168 3.52334473 -17.97443359 3.48418945 -17.25292969 3.44384766 C-13.50162742 3.23996795 -13.50162742 3.23996795 -10 2 C-8.29297265 1.93003986 -6.58331997 1.91559846 -4.875 1.9375 C-3.96492188 1.94652344 -3.05484375 1.95554687 -2.1171875 1.96484375 C-1.06917969 1.98224609 -1.06917969 1.98224609 0 2 C0 1.34 0 0.68 0 0 Z " fill="#E57486" transform="translate(384,307)"/>
<path d="M0 0 C2.95313032 0.01842176 5.90594864 0.020508 8.85913086 0.02026367 C10.74780544 0.02517436 12.63647791 0.03100071 14.52514648 0.0378418 C15.40226791 0.03895462 16.27938934 0.04006744 17.18309021 0.04121399 C21.24865696 0.07277674 25.03189981 0.18832681 28.99780273 1.20581055 C28.99780273 1.53581055 28.99780273 1.86581055 28.99780273 2.20581055 C28.42230682 2.21611801 27.84681091 2.22642548 27.25387573 2.23704529 C21.25141759 2.3454227 15.24910012 2.45999421 9.24682617 2.578125 C7.00824941 2.62137391 4.7696418 2.6630559 2.53100586 2.703125 C-0.69109383 2.76107129 -3.91303966 2.82469521 -7.13500977 2.8894043 C-8.13210968 2.90611679 -9.12920959 2.92282928 -10.15652466 2.94004822 C-14.87608619 3.04013379 -19.35541327 3.28969874 -24.00219727 4.20581055 C-26.68029802 4.31777128 -29.31952413 4.25206353 -32.00219727 4.20581055 C-31.67219727 3.54581055 -31.34219727 2.88581055 -31.00219727 2.20581055 C-21.22012919 -0.93331176 -10.12812857 -0.06550743 0 0 Z " fill="#D93D2B" transform="translate(156.002197265625,154.794189453125)"/>
<path d="M0 0 C17.43872931 -0.29653824 34.62824005 0.46797661 52 2 C52 2.33 52 2.66 52 3 C47.16603021 3.05028938 42.33222012 3.08612912 37.49804688 3.10986328 C35.86130107 3.11978101 34.22457228 3.13331937 32.58789062 3.15087891 C21.55125378 3.26612634 10.91474128 2.66920267 0 1 C0 0.67 0 0.34 0 0 Z " fill="#F8B434" transform="translate(314,181)"/>
<path d="M0 0 C0.33 0 0.66 0 1 0 C1.33 8.58 1.66 17.16 2 26 C-8.125 24.875 -8.125 24.875 -11.81640625 24.02734375 C-12.99106445 23.76147461 -12.99106445 23.76147461 -14.18945312 23.49023438 C-14.97255859 23.30783203 -15.75566406 23.12542969 -16.5625 22.9375 C-17.38041016 22.75123047 -18.19832031 22.56496094 -19.04101562 22.37304688 C-21.02835896 21.91979313 -23.01433201 21.46053788 -25 21 C-25 20.67 -25 20.34 -25 20 C-23.741875 19.979375 -22.48375 19.95875 -21.1875 19.9375 C-20.47980469 19.92589844 -19.77210938 19.91429687 -19.04296875 19.90234375 C-17 20 -17 20 -14 21 C-10.90775724 21.30540669 -7.81488281 21.50832311 -4.71484375 21.71875 C-2 22 -2 22 0 23 C0 15.41 0 7.82 0 0 Z " fill="#F7E05F" transform="translate(253,273)"/>
<path d="M0 0 C6.59414558 0.6574021 13.0530344 1.64003984 19.5625 2.875 C20.45646484 3.03613281 21.35042969 3.19726562 22.27148438 3.36328125 C27.79634991 4.40601374 32.79343949 5.8736334 38 8 C34.89484695 8.96804074 32.6488104 8.98121797 29.453125 8.44140625 C28.18662109 8.23354492 28.18662109 8.23354492 26.89453125 8.02148438 C25.58548828 7.79428711 25.58548828 7.79428711 24.25 7.5625 C23.36183594 7.41490234 22.47367188 7.26730469 21.55859375 7.11523438 C19.37108664 6.75064986 17.18510358 6.37867934 15 6 C15 5.34 15 4.68 15 4 C13.824375 4.061875 12.64875 4.12375 11.4375 4.1875 C6.96039699 4.21144173 3.9758112 2.9879056 0 1 C0 0.67 0 0.34 0 0 Z " fill="#E2657A" transform="translate(213,33)"/>
<path d="M0 0 C1.43739513 -0.02712066 2.87493863 -0.04645067 4.3125 -0.0625 C5.51326172 -0.07990234 5.51326172 -0.07990234 6.73828125 -0.09765625 C9 0 9 0 12 1 C14.05893621 1.22325814 16.12233653 1.40705759 18.1875 1.5625 C19.27417969 1.64628906 20.36085937 1.73007813 21.48046875 1.81640625 C22.72763672 1.90728516 22.72763672 1.90728516 24 2 C24 2.33 24 2.66 24 3 C30.6 3.99 37.2 4.98 44 6 C44 6.66 44 7.32 44 8 C44.66 8.33 45.32 8.66 46 9 C38.38407941 8.42102431 31.0334946 7.12217812 23.5625 5.5625 C21.43899854 5.12534668 19.31530168 4.68914144 17.19140625 4.25390625 C16.16805176 4.0439502 15.14469727 3.83399414 14.09033203 3.61767578 C9.40500252 2.68120212 4.7048667 1.83199022 0 1 C0 0.67 0 0.34 0 0 Z " fill="#DC482E" transform="translate(202,159)"/>
<path d="M0 0 C6.04693287 -0.20018385 11.35827575 0.50818929 17.25 1.8125 C27.44520925 3.96880797 37.68338425 5.55128375 48 7 C48 7.33 48 7.66 48 8 C41.39517684 8.21305881 34.99565991 7.78196605 28.4375 7.0625 C27.62748535 6.97564941 26.8174707 6.88879883 25.98291016 6.79931641 C20.1264939 6.1264939 20.1264939 6.1264939 19 5 C17.06561749 4.76654004 15.1310415 4.5345191 13.1953125 4.3125 C8.51307095 3.64598875 4.12764417 2.31148073 0 0 Z " fill="#DC442D" transform="translate(272,175)"/>
<path d="M0 0 C1.16208984 0.21462891 1.16208984 0.21462891 2.34765625 0.43359375 C4.23295579 0.78272329 6.11665939 1.14045316 8 1.5 C8 2.16 8 2.82 8 3.5 C8.66 3.83 9.32 4.16 10 4.5 C2.76252805 3.83346916 -4.42719031 2.9417338 -11.625 1.9375 C-13.13126953 1.72963867 -13.13126953 1.72963867 -14.66796875 1.51757812 C-17.11221324 1.1800396 -19.55621161 0.84082223 -22 0.5 C-22 0.17 -22 -0.16 -22 -0.5 C-14.51883234 -2.37029191 -7.43932874 -1.43113603 0 0 Z " fill="#F2E474" transform="translate(217,288.5)"/>
<path d="M0 0 C1.23556641 0.01740234 1.23556641 0.01740234 2.49609375 0.03515625 C3.32238281 0.04417969 4.14867187 0.05320313 5 0.0625 C5.63808594 0.07410156 6.27617187 0.08570313 6.93359375 0.09765625 C6.93359375 0.42765625 6.93359375 0.75765625 6.93359375 1.09765625 C-1.12502307 3.72604617 -9.07113394 5.58713865 -17.44140625 6.84765625 C-18.68809082 7.03871948 -18.68809082 7.03871948 -19.95996094 7.23364258 C-25.04723423 7.95930621 -29.92859911 8.21576676 -35.06640625 8.09765625 C-35.06640625 7.76765625 -35.06640625 7.43765625 -35.06640625 7.09765625 C-34.34461182 6.98172119 -33.62281738 6.86578613 -32.87915039 6.74633789 C-29.62837676 6.22179971 -26.37864552 5.69106334 -23.12890625 5.16015625 C-21.99259766 4.97775391 -20.85628906 4.79535156 -19.68554688 4.60742188 C-18.60595703 4.43017578 -17.52636719 4.25292969 -16.4140625 4.0703125 C-15.41383057 3.90797119 -14.41359863 3.74562988 -13.38305664 3.57836914 C-11.1144559 3.32860307 -11.1144559 3.32860307 -10.06640625 2.09765625 C-6.56640625 1.59765625 -6.56640625 1.59765625 -3.06640625 1.09765625 C-2.06640625 0.09765625 -2.06640625 0.09765625 0 0 Z " fill="#F9AB3C" transform="translate(403.06640625,174.90234375)"/>
<path d="M0 0 C4.62 0 9.24 0 14 0 C14 0.33 14 0.66 14 1 C-0.15177676 3.87120899 -13.55426314 5.60682209 -28 5 C-28 4.67 -28 4.34 -28 4 C-26.86820312 3.93941406 -25.73640625 3.87882812 -24.5703125 3.81640625 C-23.08852855 3.73200083 -21.6067584 3.64735283 -20.125 3.5625 C-19.37863281 3.52318359 -18.63226563 3.48386719 -17.86328125 3.44335938 C-13.80013136 3.28426376 -13.80013136 3.28426376 -10 2 C-8.29297265 1.93003986 -6.58331997 1.91559846 -4.875 1.9375 C-3.96492188 1.94652344 -3.05484375 1.95554687 -2.1171875 1.96484375 C-1.06917969 1.98224609 -1.06917969 1.98224609 0 2 C0 1.34 0 0.68 0 0 Z " fill="#E25D71" transform="translate(384,307)"/>
<path d="M0 0 C-1.54107422 0.38091797 -1.54107422 0.38091797 -3.11328125 0.76953125 C-11.10368823 2.75167766 -19.06701678 4.79639355 -27 7 C-27.33 10.3 -27.66 13.6 -28 17 C-28.33 17 -28.66 17 -29 17 C-29 13.04 -29 9.08 -29 5 C-27.35 4.34 -25.7 3.68 -24 3 C-23.34 2.34 -22.68 1.68 -22 1 C-18.91796875 0.62109375 -18.91796875 0.62109375 -15.1875 0.4375 C-10.17836321 0.19138316 -10.17836321 0.19138316 -5.23828125 -0.58984375 C-3 -1 -3 -1 0 0 Z " fill="#F3E982" transform="translate(124,289)"/>
<path d="M0 0 C6.77864289 0.66048315 13.38230956 1.74691622 20.0625 3.0625 C21.02349609 3.24876953 21.98449219 3.43503906 22.97460938 3.62695312 C25.31704531 4.08145562 27.65879844 4.53918902 30 5 C30 5.33 30 5.66 30 6 C26.37435813 5.89045592 22.74978569 5.7597504 19.125 5.625 C18.09246094 5.5940625 17.05992187 5.563125 15.99609375 5.53125 C15.00996094 5.49257813 14.02382813 5.45390625 13.0078125 5.4140625 C12.09660645 5.3826416 11.18540039 5.3512207 10.24658203 5.31884766 C8 5 8 5 6 3 C4.01178687 2.60235737 2.01055661 2.26224651 0 2 C0 1.34 0 0.68 0 0 Z " fill="#F4E474" transform="translate(274,46)"/>
<path d="M0 0 C2 1 2 1 3.125 4.3125 C4 8 4 8 4 12 C5.485 11.7834375 5.485 11.7834375 7 11.5625 C10.99409465 10.99074821 14.99532937 10.49180166 19 10 C19 10.66 19 11.32 19 12 C9.58997722 14.11161731 9.58997722 14.11161731 5 15 C4.67 17.97 4.34 20.94 4 24 C3.67 24 3.34 24 3 24 C2.01 16.08 1.02 8.16 0 0 Z " fill="#D18392" transform="translate(92,24)"/>
<path d="M0 0 C10.57926542 -0.57014005 20.62718197 1.17716169 31 3 C31 3.33 31 3.66 31 4 C26.95779519 3.8896357 22.91648085 3.75911994 18.875 3.625 C17.16183594 3.57859375 17.16183594 3.57859375 15.4140625 3.53125 C14.30546875 3.49257813 13.196875 3.45390625 12.0546875 3.4140625 C11.03874512 3.3826416 10.02280273 3.3512207 8.97607422 3.31884766 C5.75811858 2.97408555 3.0262641 2.12449188 0 1 C0 0.67 0 0.34 0 0 Z " fill="#E67888" transform="translate(180,29)"/>
<path d="M0 0 C2.08326131 -0.02709444 4.16662441 -0.04643873 6.25 -0.0625 C7.41015625 -0.07410156 8.5703125 -0.08570313 9.765625 -0.09765625 C12.40977128 -0.01782092 14.49826091 0.21356222 17 1 C17 1.66 17 2.32 17 3 C19.64 3 22.28 3 25 3 C25 3.66 25 4.32 25 5 C16.5653016 4.02716362 8.2519027 3.06297567 0 1 C0 0.67 0 0.34 0 0 Z " fill="#E47486" transform="translate(263,301)"/>
<path d="M0 0 C-6.03658293 3.96689736 -11.21734041 4.14492813 -18.3125 4.0625 C-19.05306641 4.05798828 -19.79363281 4.05347656 -20.55664062 4.04882812 C-22.37112899 4.03712175 -24.18557534 4.01918898 -26 4 C-26 3.67 -26 3.34 -26 3 C-23.29172996 2.52047335 -20.58338656 2.04136769 -17.875 1.5625 C-17.11445313 1.42779297 -16.35390625 1.29308594 -15.5703125 1.15429688 C-14.07301362 0.88968802 -12.57529578 0.62743785 -11.07714844 0.36767578 C-9.25858269 0.04577169 -7.44514595 -0.30483798 -5.6328125 -0.66015625 C-3 -1 -3 -1 0 0 Z " fill="#F3E470" transform="translate(402,50)"/>
<path d="M0 0 C-2.98650013 1.63309997 -5.78186814 2.54063916 -9.09765625 3.2890625 C-10.06380859 3.50820312 -11.02996094 3.72734375 -12.02539062 3.953125 C-13.52875977 4.28570312 -13.52875977 4.28570312 -15.0625 4.625 C-16.06861328 4.85445312 -17.07472656 5.08390625 -18.11132812 5.3203125 C-25.59493583 7 -25.59493583 7 -29 7 C-29 6.34 -29 5.68 -29 5 C-27.7625 4.731875 -26.525 4.46375 -25.25 4.1875 C-21.44644013 3.35490973 -17.69794549 2.38320076 -13.9375 1.375 C-9.10942488 0.14479904 -4.96299393 -0.28632657 0 0 Z " fill="#DA4029" transform="translate(124,159)"/>
<path d="M0 0 C3.96 0 7.92 0 12 0 C12 0.66 12 1.32 12 2 C13.918125 1.938125 13.918125 1.938125 15.875 1.875 C18.0546875 1.8046875 18.0546875 1.8046875 20 2 C20.66 2.66 21.32 3.32 22 4 C14.92590855 4.27741535 7.89901282 3.64117486 1 2 C0.67 1.34 0.34 0.68 0 0 Z " fill="#FCC238" transform="translate(292,177)"/>
<path d="M0 0 C6.63681576 0.68738449 13.00792369 2.04171834 19.5 3.5625 C20.51320313 3.79646484 21.52640625 4.03042969 22.5703125 4.27148438 C25.04772479 4.84409382 27.52422965 5.42034015 30 6 C30 6.33 30 6.66 30 7 C27.93690624 6.88521587 25.87451646 6.75773802 23.8125 6.625 C22.66394531 6.55539063 21.51539063 6.48578125 20.33203125 6.4140625 C17.14600776 6.01814399 14.92358573 5.25825208 12 4 C9.90421754 3.42674959 7.7994263 2.88557559 5.6875 2.375 C4.61886719 2.11460938 3.55023438 1.85421875 2.44921875 1.5859375 C1.64097656 1.39257812 0.83273438 1.19921875 0 1 C0 0.67 0 0.34 0 0 Z " fill="#F4D9A3" transform="translate(244,39)"/>
<path d="M0 0 C3.63 0 7.26 0 11 0 C11 0.66 11 1.32 11 2 C12.093125 1.95875 13.18625 1.9175 14.3125 1.875 C18 2 18 2 21 4 C13.65081658 4.43230491 7.09784913 2.81774185 0 1 C0 0.67 0 0.34 0 0 Z " fill="#F8AA3A" transform="translate(259,171)"/>
<path d="M0 0 C-2.42604752 2.42604752 -4.14192776 2.75843519 -7.4375 3.625 C-8.40558594 3.88539063 -9.37367188 4.14578125 -10.37109375 4.4140625 C-13 5 -13 5 -16 5 C-16 4.34 -16 3.68 -16 3 C-14.02 3 -12.04 3 -10 3 C-10 2.34 -10 1.68 -10 1 C-3.71428571 -1.42857143 -3.71428571 -1.42857143 0 0 Z " fill="#FBC337" transform="translate(426,170)"/>
<path d="M0 0 C-2.57005181 2.57005181 -4.25139178 2.57173288 -7.8125 3.125 C-8.85019531 3.29257813 -9.88789062 3.46015625 -10.95703125 3.6328125 C-13.67942337 3.96131681 -16.26250781 4.07084083 -19 4 C-15.91433716 1.94289144 -13.63014688 1.21653907 -10.0625 0.3125 C-8.50208984 -0.09548828 -8.50208984 -0.09548828 -6.91015625 -0.51171875 C-4.1294044 -0.97828785 -2.61519118 -0.93894816 0 0 Z " fill="#FDBF3C" transform="translate(114,163)"/>
<path d="M0 0 C-4.27373998 2.13686999 -6.76923622 3.11896237 -11.625 3.0625 C-12.62789063 3.05347656 -13.63078125 3.04445312 -14.6640625 3.03515625 C-15.43492188 3.02355469 -16.20578125 3.01195312 -17 3 C-17 2.67 -17 2.34 -17 2 C-11.19233704 0.4943096 -6.0018137 -0.21824777 0 0 Z " fill="#EA8F9D" transform="translate(128,31)"/>
<path d="M0 0 C1.23556641 0.01740234 1.23556641 0.01740234 2.49609375 0.03515625 C3.32238281 0.04417969 4.14867187 0.05320313 5 0.0625 C5.63808594 0.07410156 6.27617187 0.08570313 6.93359375 0.09765625 C6.93359375 0.42765625 6.93359375 0.75765625 6.93359375 1.09765625 C4.30998362 1.62656171 1.6851115 2.14607713 -0.94140625 2.66015625 C-1.68777344 2.81162109 -2.43414062 2.96308594 -3.203125 3.11914062 C-8.83984375 4.2109375 -8.83984375 4.2109375 -11.06640625 3.09765625 C-9.13370043 1.16495043 -5.67999237 1.4710257 -3.06640625 1.09765625 C-2.06640625 0.09765625 -2.06640625 0.09765625 0 0 Z " fill="#FDCC35" transform="translate(403.06640625,174.90234375)"/>
<path d="M0 0 C2.97 0 5.94 0 9 0 C4.39822025 2.30088988 2.44794671 3.12148775 -2.625 3.0625 C-3.62789063 3.05347656 -4.63078125 3.04445312 -5.6640625 3.03515625 C-6.43492187 3.02355469 -7.20578125 3.01195312 -8 3 C-8 2.67 -8 2.34 -8 2 C-5.36 2 -2.72 2 0 2 C0 1.34 0 0.68 0 0 Z " fill="#EED933" transform="translate(375,54)"/>
<path d="M0 0 C0.66 0.33 1.32 0.66 2 1 C2 2.32 2 3.64 2 5 C1.34 5 0.68 5 0 5 C-0.33 5.66 -0.66 6.32 -1 7 C-1.66 7 -2.32 7 -3 7 C-2.25 2.25 -2.25 2.25 0 0 Z " fill="#343736" transform="translate(77,23)"/>
</svg>
