<svg width="101" height="101" viewBox="0 0 101 101" fill="none" xmlns="http://www.w3.org/2000/svg">
<path d="M90.7892 20.589C85.3213 13.0394 77.8324 7.18753 69.1847 3.7073C61.5608 0.60411 53.2912 -0.578448 45.1032 0.263606C36.9151 1.10566 29.0593 3.94653 22.2266 8.53643C15.3938 13.1263 9.79342 19.3247 5.91778 26.5864C2.04214 33.8481 0.00998417 41.9509 0 50.1821C0 51.1367 0 52.0914 0 52.9957C0.43844 60.8544 2.72812 68.4981 6.68233 75.3037C13.1398 86.6377 23.7523 95.0159 36.2755 98.6667C40.8272 99.8983 45.5281 100.49 50.2431 100.425C53.4139 100.44 56.5783 100.137 59.6887 99.5208C69.9516 97.5342 79.3393 92.3961 86.544 84.8221C93.7487 77.2482 98.4116 67.6156 99.8832 57.2664C100.261 54.9233 100.462 52.5553 100.486 50.1821C100.53 39.5301 97.1282 29.1495 90.7892 20.589ZM80.7406 24.4577L75.3646 38.8272L67.2252 41.0379L55.2674 32.5468V23.2518L67.7779 14.1579C72.8545 16.6059 77.3443 20.1189 80.9416 24.4577H80.7406ZM60.2917 48.5241L56.3727 60.2307H44.0632L40.1944 48.5241L50.2431 41.3393L60.2917 48.5241ZM50.2431 9.98768C52.1103 10.0087 53.9738 10.1598 55.82 10.4399L50.2431 14.4593L44.6661 10.4399C46.5123 10.1598 48.3758 10.0087 50.2431 9.98768ZM14.47 31.9439L16.4797 38.576L10.8023 42.5452C11.5155 38.8552 12.7505 35.2857 14.47 31.9439ZM21.3533 78.0168L28.2868 78.268L30.1458 84.9503C26.9173 83.0439 23.9599 80.7118 21.3533 78.0168ZM30.1458 68.2696L14.3193 67.7169C12.3224 63.7953 10.9977 59.5664 10.4003 55.2064L22.9108 46.4641L30.1458 49.5792L34.6175 63.4463L30.1458 68.2696ZM34.4667 40.4852L26.6288 36.9682L22.0567 21.8953C25.1384 18.7478 28.7208 16.1332 32.658 14.1579L45.2187 23.2518V32.5468L34.4667 40.4852ZM55.2674 90.0249C50.8594 90.5477 46.3955 90.344 42.0534 89.4219L37.8833 74.751L42.0534 70.2793H57.4781L60.8443 75.3037L55.2674 90.0249ZM67.3759 86.5078L69.6871 80.328L76.5202 80.6797C73.7093 83.047 70.5805 85.0088 67.2252 86.5078H67.3759ZM84.76 70.832L69.1344 70.2793L65.5672 64.7526L70.0388 50.8855L77.6255 48.8256L89.4829 58.8742C88.5272 63.1011 86.8805 67.1413 84.6093 70.832H84.76ZM85.0112 41.5403L87.4229 35.1092C88.8376 38.5243 89.7351 42.1312 90.0858 45.811L85.0112 41.5403Z" fill="#4A2060"/>
</svg>
